<?xml version="1.0" encoding="utf-8"?>
<!-- Generated by IcoMoon.io -->
<!DOCTYPE svg PUBLIC "-//W3C//DTD SVG 1.1//EN" "http://www.w3.org/Graphics/SVG/1.1/DTD/svg11.dtd">
<svg version="1.1" xmlns="http://www.w3.org/2000/svg" xmlns:xlink="http://www.w3.org/1999/xlink" width="32" height="32" viewBox="0 0 32 32">
<path d="M27 0c-2.762 0-5 2.239-5 5v15h4v12h6v-27c0-2.761-2.239-5-5-5zM13 0c-0.552 0-1 0.448-1 1v7c0 0.276-0.448 0.5-1 0.5s-1-0.224-1-0.5v-7c0-0.552-0.448-1-1-1s-1 0.448-1 1v7c0 0.276-0.448 0.5-1 0.5s-1-0.224-1-0.5v-7c0-0.552-0.448-1-1-1s-1 0.448-1 1v7c0 0.276-0.448 0.5-1 0.5s-1-0.224-1-0.5v-7c0-0.552-0.448-1-1-1s-1 0.448-1 1v9c0 0.885 0.783 1.378 1.656 2 1.1 0.783 2.344 1.77 2.344 4v16h6v-16c0-2.23 1.243-3.217 2.344-4 0.873-0.622 1.656-1.115 1.656-2v-9c0-0.552-0.448-1-1-1z" fill="white"></path>
</svg>
