<?xml version="1.0" standalone="yes"?>

<svg version="1.1" viewBox="0.0 0.0 50.0 30.0" fill="none" stroke="none" stroke-linecap="square" stroke-miterlimit="10" xmlns="http://www.w3.org/2000/svg" xmlns:xlink="http://www.w3.org/1999/xlink"><clipPath id="p.0"><path d="m0 0l50.0 0l0 30.0l-50.0 0l0 -30.0z" clip-rule="nonzero"></path></clipPath><g clip-path="url(#p.0)"><path fill="#000000" fill-opacity="0.0" d="m0 0l50.0 0l0 30.0l-50.0 0z" fill-rule="nonzero"></path><path fill="#000000" fill-opacity="0.0" d="m4.929134 9.818897c3.9576402 13.562798 34.525253 16.278008 42.15748 4.3884516" fill-rule="evenodd"></path><path stroke="#000000" stroke-width="2.0" stroke-linejoin="round" stroke-linecap="butt" d="m4.929134 9.818897c3.9576402 13.562798 34.525253 16.278008 42.15748 4.3884516" fill-rule="evenodd"></path><path fill="#000000" fill-opacity="0.0" d="m4.2440944 10.251968c-0.26500273 2.7017374 -0.4027288 5.4252796 -0.8976376 8.094488" fill-rule="evenodd"></path><path stroke="#000000" stroke-width="2.0" stroke-linejoin="round" stroke-linecap="butt" d="m4.2440944 10.251968c-0.26500273 2.7017374 -0.4027288 5.4252796 -0.8976376 8.094488" fill-rule="evenodd"></path><path fill="#000000" fill-opacity="0.0" d="m5.1076117 9.892388c4.3713236 1.3674259 8.592255 3.2203074 13.020997 4.3884516" fill-rule="evenodd"></path><path stroke="#000000" stroke-width="2.0" stroke-linejoin="round" stroke-linecap="butt" d="m5.1076117 9.892388c4.3713236 1.3674259 8.592255 3.2203074 13.020997 4.3884516" fill-rule="evenodd"></path></g></svg>
